<svg width="51" height="56" viewBox="0 0 51 56" fill="none" xmlns="http://www.w3.org/2000/svg">
<path fill-rule="evenodd" clip-rule="evenodd" d="M0.0420115 23.674C0.800943 10.4719 11.7473 0 25.1396 0C38.5317 0 49.4781 10.4718 50.2371 23.6738C50.2647 23.823 50.2792 23.9768 50.2792 24.134V52.1495C50.2792 53.9137 48.5094 55.1292 46.8627 54.4959L41.5097 52.437C40.8504 52.1834 40.1148 52.2189 39.4829 52.5348L34.0389 55.2568C33.3415 55.6056 32.5216 55.6109 31.8197 55.2712L26.2528 52.5776C25.5508 52.2379 24.731 52.2432 24.0335 52.592L18.6704 55.2735C17.9919 55.6128 17.1965 55.6275 16.5059 55.3136L10.2852 52.486C9.65727 52.2006 8.93964 52.1857 8.30042 52.4448L3.45848 54.4078C1.8056 55.0779 1.18276e-05 53.8615 1.18276e-05 52.078V25.1642C3.94312e-06 25.156 0 25.1478 0 25.1396C0 25.1314 3.94312e-06 25.1231 1.18276e-05 25.1149V24.134C1.18276e-05 23.9769 0.0144281 23.8231 0.0420115 23.674Z" fill="#D9D9D9"/>
<ellipse cx="14.3295" cy="26.648" rx="3.26814" ry="7.54187" fill="#0B0C10"/>
<ellipse cx="30.9217" cy="26.648" rx="3.26814" ry="7.54187" fill="#0B0C10"/>
</svg>
