<svg width="18" height="18" viewBox="0 0 18 18" fill="none" xmlns="http://www.w3.org/2000/svg">
<path d="M3.375 3.9375V14.0625C3.375 14.2117 3.31574 14.3548 3.21025 14.4602C3.10476 14.5657 2.96168 14.625 2.8125 14.625C2.66332 14.625 2.52024 14.5657 2.41475 14.4602C2.30926 14.3548 2.25 14.2117 2.25 14.0625V3.9375C2.25 3.78832 2.30926 3.64524 2.41475 3.53975C2.52024 3.43426 2.66332 3.375 2.8125 3.375C2.96168 3.375 3.10476 3.43426 3.21025 3.53975C3.31574 3.64524 3.375 3.78832 3.375 3.9375ZM9.28125 7.76953L7.875 8.22656V6.75C7.875 6.60082 7.81574 6.45774 7.71025 6.35225C7.60476 6.24676 7.46168 6.1875 7.3125 6.1875C7.16332 6.1875 7.02024 6.24676 6.91475 6.35225C6.80926 6.45774 6.75 6.60082 6.75 6.75V8.22656L5.34375 7.76953C5.20184 7.72291 5.04722 7.73457 4.91391 7.80196C4.7806 7.86934 4.67951 7.98692 4.63289 8.12883C4.58627 8.27074 4.59793 8.42536 4.66532 8.55867C4.7327 8.69198 4.85028 8.79307 4.99219 8.83969L6.39844 9.29602L5.53078 10.4913C5.48493 10.5509 5.45148 10.6191 5.43242 10.6918C5.41336 10.7645 5.40908 10.8403 5.41981 10.9147C5.43055 10.9891 5.45609 11.0606 5.49493 11.125C5.53378 11.1894 5.58513 11.2453 5.64595 11.2895C5.70678 11.3337 5.77584 11.3652 5.84906 11.3823C5.92229 11.3993 5.99818 11.4015 6.07227 11.3887C6.14635 11.3759 6.21712 11.3484 6.28039 11.3078C6.34366 11.2672 6.39814 11.2143 6.44062 11.1523L7.30828 9.95695L8.17594 11.1523C8.21842 11.2143 8.27291 11.2672 8.33618 11.3078C8.39944 11.3484 8.47021 11.3759 8.54429 11.3887C8.61838 11.4015 8.69427 11.3993 8.7675 11.3823C8.84072 11.3652 8.90979 11.3337 8.97061 11.2895C9.03144 11.2453 9.08279 11.1894 9.12163 11.125C9.16047 11.0606 9.18601 10.9891 9.19675 10.9147C9.20749 10.8403 9.2032 10.7645 9.18414 10.6918C9.16508 10.6191 9.13163 10.5509 9.08578 10.4913L8.21812 9.29602L9.62438 8.83969C9.76002 8.78923 9.871 8.68844 9.93423 8.55826C9.99747 8.42809 10.0081 8.27855 9.96392 8.14073C9.91973 8.00292 9.82412 7.88744 9.69698 7.81831C9.56984 7.74917 9.42094 7.7317 9.28125 7.76953ZM16.7344 8.13094C16.6883 7.99032 16.5886 7.87353 16.457 7.80588C16.3254 7.73823 16.1724 7.72517 16.0312 7.76953L14.625 8.22656V6.75C14.625 6.60082 14.5657 6.45774 14.4602 6.35225C14.3548 6.24676 14.2117 6.1875 14.0625 6.1875C13.9133 6.1875 13.7702 6.24676 13.6648 6.35225C13.5593 6.45774 13.5 6.60082 13.5 6.75V8.22656L12.0938 7.77023C12.0235 7.74738 11.9494 7.73859 11.8757 7.74437C11.8021 7.75015 11.7303 7.77038 11.6644 7.8039C11.5986 7.83743 11.54 7.8836 11.492 7.93977C11.444 7.99594 11.4075 8.06102 11.3846 8.13129C11.3618 8.20156 11.353 8.27564 11.3588 8.3493C11.3646 8.42297 11.3848 8.49477 11.4183 8.56062C11.4518 8.62646 11.498 8.68506 11.5542 8.73306C11.6104 8.78107 11.6754 8.81754 11.7457 8.84039L13.152 9.29672L12.2843 10.492C12.2384 10.5516 12.205 10.6198 12.1859 10.6925C12.1669 10.7652 12.1626 10.841 12.1733 10.9154C12.1841 10.9898 12.2096 11.0613 12.2484 11.1257C12.2873 11.1901 12.3386 11.246 12.3995 11.2902C12.4603 11.3344 12.5294 11.3659 12.6026 11.383C12.6758 11.4 12.7517 11.4022 12.8258 11.3894C12.8999 11.3766 12.9706 11.3491 13.0339 11.3085C13.0972 11.2679 13.1517 11.215 13.1941 11.153L14.0618 9.95766L14.9295 11.153C14.9719 11.215 15.0264 11.2679 15.0897 11.3085C15.153 11.3491 15.2237 11.3766 15.2978 11.3894C15.3719 11.4022 15.4478 11.4 15.521 11.383C15.5942 11.3659 15.6633 11.3344 15.7241 11.2902C15.785 11.246 15.8363 11.1901 15.8751 11.1257C15.914 11.0613 15.9395 10.9898 15.9503 10.9154C15.961 10.841 15.9567 10.7652 15.9377 10.6925C15.9186 10.6198 15.8851 10.5516 15.8393 10.492L14.9716 9.29672L16.3779 8.84039C16.5191 8.79334 16.6359 8.69227 16.7027 8.5593C16.7695 8.42633 16.7809 8.2723 16.7344 8.13094Z" fill="#575960"/>
</svg>
