<svg width="18" height="18" viewBox="0 0 18 18" fill="none" xmlns="http://www.w3.org/2000/svg">
<path d="M16.2366 14.9063C15.1657 13.0549 13.5155 11.7274 11.5896 11.0981C12.5422 10.531 13.2824 9.66692 13.6963 8.63847C14.1103 7.61002 14.1752 6.47412 13.8811 5.40519C13.5871 4.33627 12.9502 3.39344 12.0684 2.72148C11.1866 2.04953 10.1086 1.68561 9.00001 1.68561C7.89137 1.68561 6.81338 2.04953 5.93159 2.72148C5.0498 3.39344 4.41296 4.33627 4.11887 5.40519C3.82479 6.47412 3.88971 7.61002 4.30369 8.63847C4.71766 9.66692 5.45778 10.531 6.4104 11.0981C4.48454 11.7267 2.8343 13.0542 1.76344 14.9063C1.72417 14.9703 1.69813 15.0416 1.68684 15.1158C1.67555 15.1901 1.67925 15.2658 1.69772 15.3387C1.71619 15.4115 1.74905 15.4798 1.79438 15.5397C1.8397 15.5996 1.89656 15.6499 1.9616 15.6874C2.02665 15.725 2.09856 15.7492 2.17309 15.7585C2.24762 15.7678 2.32327 15.7621 2.39557 15.7417C2.46787 15.7214 2.53535 15.6867 2.59404 15.6398C2.65273 15.5929 2.70143 15.5348 2.73727 15.4688C4.06196 13.1794 6.40337 11.8125 9.00001 11.8125C11.5966 11.8125 13.9381 13.1794 15.2627 15.4688C15.2986 15.5348 15.3473 15.5929 15.406 15.6398C15.4647 15.6867 15.5321 15.7214 15.6044 15.7417C15.6767 15.7621 15.7524 15.7678 15.8269 15.7585C15.9015 15.7492 15.9734 15.725 16.0384 15.6874C16.1035 15.6499 16.1603 15.5996 16.2056 15.5397C16.251 15.4798 16.2838 15.4115 16.3023 15.3387C16.3208 15.2658 16.3245 15.1901 16.3132 15.1158C16.3019 15.0416 16.2758 14.9703 16.2366 14.9063ZM5.06251 6.75002C5.06251 5.97126 5.29344 5.20998 5.7261 4.56246C6.15875 3.91494 6.77371 3.41026 7.49319 3.11224C8.21268 2.81422 9.00438 2.73625 9.76818 2.88818C10.532 3.04011 11.2336 3.41512 11.7842 3.96579C12.3349 4.51646 12.7099 5.21805 12.8618 5.98185C13.0138 6.74565 12.9358 7.53735 12.6378 8.25684C12.3398 8.97632 11.8351 9.59127 11.1876 10.0239C10.54 10.4566 9.77877 10.6875 9.00001 10.6875C7.95606 10.6864 6.95519 10.2712 6.21701 9.53302C5.47883 8.79484 5.06362 7.79397 5.06251 6.75002Z" fill="#575960"/>
</svg>
